<svg width="127" height="126" viewBox="0 0 127 126" fill="none" xmlns="http://www.w3.org/2000/svg">
<path d="M63.729 0.0371857C28.9773 0.0371857 0.80629 28.2082 0.80629 62.9599C0.80629 97.7116 28.9773 125.883 63.729 125.883C98.4807 125.883 126.652 97.7116 126.652 62.9599C126.652 28.2082 98.4807 0.0371857 63.729 0.0371857ZM48.326 89.04H35.5842V48.0354H48.326V89.04ZM41.8765 43.0016C37.852 43.0016 35.2499 40.1504 35.2499 36.6241C35.2499 33.0257 37.9307 30.2597 42.0403 30.2597C46.15 30.2597 48.6669 33.0257 48.7455 36.6241C48.7455 40.1504 46.15 43.0016 41.8765 43.0016ZM94.8626 89.04H82.1208V66.3158C82.1208 61.0263 80.2724 57.4345 75.6646 57.4345C72.1449 57.4345 70.054 59.8662 69.1299 62.2061C68.789 63.0385 68.7038 64.2183 68.7038 65.3916V89.0335H55.9554V61.1115C55.9554 55.9925 55.7915 51.7125 55.6211 48.0289H66.6916L67.2749 53.7247H67.5306C69.2085 51.0505 73.3181 47.1047 80.1938 47.1047C88.5769 47.1047 94.8626 52.7218 94.8626 64.7951V89.04Z" fill="#0A66C2"/>
</svg>
